<svg data-v-423bf9ae="" xmlns="http://www.w3.org/2000/svg" viewBox="0 0 471.2840335953908 60" className="font"><!----><!----><!----><g data-v-423bf9ae="" id="500770fa-e071-424b-a53d-f8d584139886" fill="#4f46e5" transform="matrix(4.693471601295546,0,0,4.693471601295546,5.444419719044049,-32.54587320681179)"><path d="M5.84 16.67L5.84 16.67L5.84 16.67Q5.88 17.25 5.92 17.73L5.92 17.73L5.92 17.73Q5.96 18.21 6.02 18.62L6.02 18.62L6.02 18.62Q6.08 19.01 6.21 19.17L6.21 19.17L6.21 19.17Q6.34 19.32 6.68 19.42L6.68 19.42L6.68 19.42Q7 19.53 7.31 19.55L7.31 19.55L7.31 19.55Q7.62 19.57 7.98 19.57L7.98 19.57L7.98 19.57Q8.34 19.57 8.45 19.47L8.45 19.47L8.45 19.47Q8.55 19.38 8.55 19.12L8.55 19.12L8.55 19.12Q8.54 17.92 8.55 16.51L8.55 16.51L8.55 16.51Q8.55 15.11 8.58 13.71L8.58 13.71L8.58 13.71Q8.61 12.31 8.67 11.02L8.67 11.02L8.67 11.02Q8.72 9.73 8.81 8.74L8.81 8.74L8.81 8.74Q8.85 8.33 8.73 8.08L8.73 8.08L8.73 8.08Q8.61 7.83 8.18 7.67L8.18 7.67L8.18 7.67Q7.85 7.59 7.54 7.49L7.54 7.49L7.54 7.49Q7.22 7.39 6.85 7.31L6.85 7.31L6.85 7.31Q6.48 7.22 6.03 7.16L6.03 7.16L6.03 7.16Q5.59 7.10 5.01 7.07L5.01 7.07L5.01 7.07Q4.35 7.01 4.02 7.25L4.02 7.25L4.02 7.25Q3.68 7.49 3.47 7.87L3.47 7.87L3.47 7.87Q2.88 8.92 2.23 10.27L2.23 10.27L2.23 10.27Q1.58 11.62 0.96 13.01L0.96 13.01L0.96 13.01Q0.34 14.39-0.20 15.69L-0.20 15.69L-0.20 15.69Q-0.74 17.00-1.08 17.96L-1.08 17.96L-1.08 17.96Q-1.16 18.26-1.16 18.43L-1.16 18.43L-1.16 18.43Q-1.15 18.61-1.08 18.72L-1.08 18.72L-1.08 18.72Q-1.01 18.83-0.88 18.91L-0.88 18.91L-0.88 18.91Q-0.76 18.98-0.59 19.10L-0.59 19.10L-0.59 19.10Q-0.36 19.21-0.15 19.30L-0.15 19.30L-0.15 19.30Q0.07 19.39 0.25 19.46L0.25 19.46L0.25 19.46Q0.57 19.57 0.73 19.53L0.73 19.53L0.73 19.53Q0.90 19.49 1.01 19.25L1.01 19.25L1.01 19.25Q1.20 18.80 1.41 18.33L1.41 18.33L1.41 18.33Q1.62 17.86 1.90 17.32L1.90 17.32L1.90 17.32Q2.70 17.11 3.75 16.96L3.75 16.96L3.75 16.96Q4.79 16.81 5.84 16.67ZM3.16 14.71L3.16 14.71L3.16 14.71Q3.82 13.38 4.47 12.14L4.47 12.14L4.47 12.14Q5.12 10.91 5.68 9.88L5.68 9.88L5.68 9.88Q5.66 11.00 5.67 12.14L5.67 12.14L5.67 12.14Q5.68 13.29 5.71 14.43L5.71 14.43L5.71 14.43Q5.07 14.48 4.43 14.55L4.43 14.55L4.43 14.55Q3.79 14.62 3.16 14.71ZM14.70 15.08L14.70 15.08L14.70 15.08Q15.32 14.49 16.00 13.82L16.00 13.82L16.00 13.82Q16.69 13.15 17.32 12.47L17.32 12.47L17.32 12.47Q17.96 11.79 18.50 11.14L18.50 11.14L18.50 11.14Q19.04 10.49 19.36 9.95L19.36 9.95L19.36 9.95Q19.63 9.52 19.66 9.23L19.66 9.23L19.66 9.23Q19.70 8.93 19.59 8.62L19.59 8.62L19.59 8.62Q19.40 8.25 19.20 7.92L19.20 7.92L19.20 7.92Q19.00 7.60 18.69 7.34L18.69 7.34L18.69 7.34Q18.40 7.08 18.16 7.08L18.16 7.08L18.16 7.08Q17.95 7.08 17.71 7.39L17.71 7.39L17.71 7.39Q17.35 7.84 16.78 8.48L16.78 8.48L16.78 8.48Q16.21 9.13 15.56 9.84L15.56 9.84L15.56 9.84Q14.91 10.56 14.22 11.29L14.22 11.29L14.22 11.29Q13.54 12.03 12.95 12.67L12.95 12.67L12.95 12.67Q13.19 11.58 13.40 10.66L13.40 10.66L13.40 10.66Q13.61 9.74 13.82 9.03L13.82 9.03L13.82 9.03Q13.87 8.85 13.89 8.71L13.89 8.71L13.89 8.71Q13.90 8.58 13.85 8.47L13.85 8.47L13.85 8.47Q13.79 8.36 13.66 8.25L13.66 8.25L13.66 8.25Q13.54 8.15 13.33 8.01L13.33 8.01L13.33 8.01Q12.95 7.76 12.44 7.53L12.44 7.53L12.44 7.53Q11.93 7.31 11.48 7.20L11.48 7.20L11.48 7.20Q11.07 7.07 10.85 7.16L10.85 7.16L10.85 7.16Q10.63 7.25 10.51 7.64L10.51 7.64L10.51 7.64Q10.37 8.30 10.22 9.20L10.22 9.20L10.22 9.20Q10.07 10.09 9.91 11.10L9.91 11.10L9.91 11.10Q9.76 12.10 9.62 13.14L9.62 13.14L9.62 13.14Q9.48 14.18 9.37 15.13L9.37 15.13L9.37 15.13Q9.25 16.09 9.18 16.88L9.18 16.88L9.18 16.88Q9.11 17.67 9.10 18.16L9.10 18.16L9.10 18.16Q9.07 18.68 9.35 18.93L9.35 18.93L9.35 18.93Q9.63 19.18 10.26 19.35L10.26 19.35L10.26 19.35Q10.57 19.43 10.83 19.51L10.83 19.51L10.83 19.51Q11.09 19.59 11.27 19.59L11.27 19.59L11.27 19.59Q11.45 19.60 11.55 19.52L11.55 19.52L11.55 19.52Q11.65 19.45 11.65 19.24L11.65 19.24L11.65 19.24Q11.76 18.61 11.90 17.84L11.90 17.84L11.90 17.84Q12.04 17.07 12.22 16.14L12.22 16.14L12.22 16.14Q12.52 16.56 12.86 16.99L12.86 16.99L12.86 16.99Q13.20 17.42 13.52 17.79L13.52 17.79L13.52 17.79Q13.83 18.17 14.10 18.47L14.10 18.47L14.10 18.47Q14.36 18.76 14.52 18.93L14.52 18.93L14.52 18.93Q14.90 19.33 15.27 19.39L15.27 19.39L15.27 19.39Q15.65 19.45 16.02 19.35L16.02 19.35L16.02 19.35Q16.25 19.32 16.50 19.25L16.50 19.25L16.50 19.25Q16.74 19.18 16.93 19.08L16.93 19.08L16.93 19.08Q17.23 18.94 17.28 18.80L17.28 18.80L17.28 18.80Q17.33 18.65 17.09 18.41L17.09 18.41L17.09 18.41Q16.87 18.16 16.58 17.78L16.58 17.78L16.58 17.78Q16.28 17.40 15.96 16.95L15.96 16.95L15.96 16.95Q15.64 16.51 15.31 16.02L15.31 16.02L15.31 16.02Q14.98 15.54 14.70 15.08ZM21.88 16.04L21.88 16.04L21.88 16.04Q22.25 16.49 22.69 16.93L22.69 16.93L22.69 16.93Q23.14 17.37 23.59 17.78L23.59 17.78L23.59 17.78Q24.04 18.19 24.46 18.52L24.46 18.52L24.46 18.52Q24.88 18.86 25.20 19.08L25.20 19.08L25.20 19.08Q25.69 19.38 26.06 19.41L26.06 19.41L26.06 19.41Q26.43 19.45 26.74 19.36L26.74 19.36L26.74 19.36Q26.99 19.32 27.17 19.29L27.17 19.29L27.17 19.29Q27.34 19.25 27.59 19.05L27.59 19.05L27.59 19.05Q27.80 18.90 27.83 18.76L27.83 18.76L27.83 18.76Q27.86 18.62 27.58 18.38L27.58 18.38L27.58 18.38Q27.23 18.10 26.83 17.72L26.83 17.72L26.83 17.72Q26.43 17.35 26.03 16.94L26.03 16.94L26.03 16.94Q25.62 16.53 25.23 16.13L25.23 16.13L25.23 16.13Q24.85 15.72 24.53 15.36L24.53 15.36L24.53 15.36Q26.10 14.66 27.22 13.85L27.22 13.85L27.22 13.85Q28.35 13.03 28.84 12.07L28.84 12.07L28.84 12.07Q29.16 11.47 28.98 10.53L28.98 10.53L28.98 10.53Q28.76 9.65 28.36 9.04L28.36 9.04L28.36 9.04Q27.96 8.43 27.47 7.90L27.47 7.90L27.47 7.90Q26.85 7.29 26.03 7.16L26.03 7.16L26.03 7.16Q25.21 7.03 24.30 7.19L24.30 7.19L24.30 7.19Q23.38 7.35 22.43 7.73L22.43 7.73L22.43 7.73Q21.49 8.11 20.62 8.50L20.62 8.50L20.62 8.50Q20.44 8.60 20.27 8.99L20.27 8.99L20.27 8.99Q20.10 9.39 19.96 10.00L19.96 10.00L19.96 10.00Q19.82 10.61 19.70 11.38L19.70 11.38L19.70 11.38Q19.57 12.14 19.47 12.95L19.47 12.95L19.47 12.95Q19.36 13.76 19.27 14.57L19.27 14.57L19.27 14.57Q19.18 15.39 19.11 16.09L19.11 16.09L19.11 16.09Q19.04 16.80 18.99 17.36L18.99 17.36L18.99 17.36Q18.94 17.92 18.91 18.21L18.91 18.21L18.91 18.21Q18.89 18.58 18.98 18.80L18.98 18.80L18.98 18.80Q19.08 19.01 19.35 19.17L19.35 19.17L19.35 19.17Q19.61 19.31 19.91 19.36L19.91 19.36L19.91 19.36Q20.20 19.42 20.58 19.52L20.58 19.52L20.58 19.52Q20.90 19.59 21.02 19.52L21.02 19.52L21.02 19.52Q21.14 19.45 21.21 19.22L21.21 19.22L21.21 19.22Q21.36 18.47 21.52 17.68L21.52 17.68L21.52 17.68Q21.69 16.90 21.88 16.04ZM23.38 10.36L23.38 10.36L23.38 10.36Q23.93 10.09 24.42 10.00L24.42 10.00L24.42 10.00Q24.91 9.90 25.31 9.90L25.31 9.90L25.31 9.90Q26.14 9.90 26.31 10.29L26.31 10.29L26.31 10.29Q26.39 10.53 26.17 10.96L26.17 10.96L26.17 10.96Q25.94 11.40 25.44 11.88L25.44 11.88L25.44 11.88Q24.93 12.36 24.18 12.83L24.18 12.83L24.18 12.83Q23.44 13.30 22.47 13.62L22.47 13.62L22.47 13.62Q22.74 12.70 22.95 11.89L22.95 11.89L22.95 11.89Q23.16 11.07 23.38 10.36ZM35.36 16.67L35.36 16.67L35.36 16.67Q35.41 17.25 35.45 17.73L35.45 17.73L35.45 17.73Q35.49 18.21 35.55 18.62L35.55 18.62L35.55 18.62Q35.60 19.01 35.73 19.17L35.73 19.17L35.73 19.17Q35.87 19.32 36.20 19.42L36.20 19.42L36.20 19.42Q36.53 19.53 36.83 19.55L36.83 19.55L36.83 19.55Q37.14 19.57 37.51 19.57L37.51 19.57L37.51 19.57Q37.87 19.57 37.98 19.47L37.98 19.47L37.98 19.47Q38.08 19.38 38.08 19.12L38.08 19.12L38.08 19.12Q38.07 17.92 38.07 16.51L38.07 16.51L38.07 16.51Q38.08 15.11 38.11 13.71L38.11 13.71L38.11 13.71Q38.14 12.31 38.19 11.02L38.19 11.02L38.19 11.02Q38.25 9.73 38.33 8.74L38.33 8.74L38.33 8.74Q38.37 8.33 38.26 8.08L38.26 8.08L38.26 8.08Q38.14 7.83 37.70 7.67L37.70 7.67L37.70 7.67Q37.38 7.59 37.06 7.49L37.06 7.49L37.06 7.49Q36.75 7.39 36.38 7.31L36.38 7.31L36.38 7.31Q36.01 7.22 35.56 7.16L35.56 7.16L35.56 7.16Q35.11 7.10 34.54 7.07L34.54 7.07L34.54 7.07Q33.88 7.01 33.54 7.25L33.54 7.25L33.54 7.25Q33.21 7.49 33.00 7.87L33.00 7.87L33.00 7.87Q32.41 8.92 31.76 10.27L31.76 10.27L31.76 10.27Q31.11 11.62 30.48 13.01L30.48 13.01L30.48 13.01Q29.86 14.39 29.32 15.69L29.32 15.69L29.32 15.69Q28.78 17.00 28.45 17.96L28.45 17.96L28.45 17.96Q28.36 18.26 28.37 18.43L28.37 18.43L28.37 18.43Q28.38 18.61 28.45 18.72L28.45 18.72L28.45 18.72Q28.52 18.83 28.64 18.91L28.64 18.91L28.64 18.91Q28.77 18.98 28.94 19.10L28.94 19.10L28.94 19.10Q29.16 19.21 29.38 19.30L29.38 19.30L29.38 19.30Q29.60 19.39 29.78 19.46L29.78 19.46L29.78 19.46Q30.10 19.57 30.26 19.53L30.26 19.53L30.26 19.53Q30.42 19.49 30.53 19.25L30.53 19.25L30.53 19.25Q30.73 18.80 30.94 18.33L30.94 18.33L30.94 18.33Q31.15 17.86 31.43 17.32L31.43 17.32L31.43 17.32Q32.23 17.11 33.27 16.96L33.27 16.96L33.27 16.96Q34.31 16.81 35.36 16.67ZM32.69 14.71L32.69 14.71L32.69 14.71Q33.35 13.38 34.00 12.14L34.00 12.14L34.00 12.14Q34.65 10.91 35.21 9.88L35.21 9.88L35.21 9.88Q35.18 11.00 35.20 12.14L35.20 12.14L35.20 12.14Q35.21 13.29 35.24 14.43L35.24 14.43L35.24 14.43Q34.59 14.48 33.96 14.55L33.96 14.55L33.96 14.55Q33.32 14.62 32.69 14.71ZM42.20 12.47L42.20 12.47L42.20 12.47Q42.41 13.87 42.67 15.19L42.67 15.19L42.67 15.19Q42.92 16.51 43.20 17.51L43.20 17.51L43.20 17.51Q43.27 17.75 43.34 17.91L43.34 17.91L43.34 17.91Q43.40 18.06 43.48 18.16L43.48 18.16L43.48 18.16Q43.57 18.27 43.68 18.33L43.68 18.33L43.68 18.33Q43.79 18.40 43.95 18.45L43.95 18.45L43.95 18.45Q44.37 18.59 44.93 18.70L44.93 18.70L44.93 18.70Q45.11 18.75 45.22 18.74L45.22 18.74L45.22 18.74Q45.33 18.73 45.40 18.69L45.40 18.69L45.40 18.69Q45.47 18.65 45.52 18.56L45.52 18.56L45.52 18.56Q45.57 18.47 45.64 18.31L45.64 18.31L45.64 18.31Q45.86 17.82 46.23 17.09L46.23 17.09L46.23 17.09Q46.61 16.35 47.05 15.53L47.05 15.53L47.05 15.53Q47.49 14.70 47.96 13.85L47.96 13.85L47.96 13.85Q48.43 12.99 48.85 12.26L48.85 12.26L48.85 12.26Q48.61 13.09 48.41 13.97L48.41 13.97L48.41 13.97Q48.20 14.85 48.03 15.66L48.03 15.66L48.03 15.66Q47.87 16.46 47.74 17.13L47.74 17.13L47.74 17.13Q47.61 17.79 47.56 18.21L47.56 18.21L47.56 18.21Q47.49 18.56 47.59 18.77L47.59 18.77L47.59 18.77Q47.70 18.98 48.02 19.14L48.02 19.14L48.02 19.14Q48.27 19.28 48.61 19.38L48.61 19.38L48.61 19.38Q48.94 19.47 49.27 19.54L49.27 19.54L49.27 19.54Q49.63 19.63 49.76 19.52L49.76 19.52L49.76 19.52Q49.88 19.40 49.98 19.15L49.98 19.15L49.98 19.15Q50.09 18.66 50.29 17.92L50.29 17.92L50.29 17.92Q50.48 17.18 50.73 16.30L50.73 16.30L50.73 16.30Q50.97 15.41 51.25 14.45L51.25 14.45L51.25 14.45Q51.52 13.48 51.79 12.54L51.79 12.54L51.79 12.54Q52.07 11.61 52.33 10.75L52.33 10.75L52.33 10.75Q52.60 9.90 52.81 9.24L52.81 9.24L52.81 9.24Q52.96 8.78 52.86 8.52L52.86 8.52L52.86 8.52Q52.75 8.26 52.35 8.06L52.35 8.06L52.35 8.06Q51.73 7.78 51.09 7.57L51.09 7.57L51.09 7.57Q50.46 7.36 49.88 7.21L49.88 7.21L49.88 7.21Q49.39 7.07 49.08 7.10L49.08 7.10L49.08 7.10Q48.76 7.13 48.51 7.34L48.51 7.34L48.51 7.34Q48.26 7.56 48.02 7.97L48.02 7.97L48.02 7.97Q47.78 8.39 47.46 9.03L47.46 9.03L47.46 9.03Q47.14 9.59 46.80 10.22L46.80 10.22L46.80 10.22Q46.45 10.85 46.13 11.48L46.13 11.48L46.13 11.48Q45.81 12.11 45.51 12.71L45.51 12.71L45.51 12.71Q45.21 13.31 44.98 13.82L44.98 13.82L44.98 13.82Q44.76 12.38 44.63 11.55L44.63 11.55L44.63 11.55Q44.51 10.72 44.44 10.28L44.44 10.28L44.44 10.28Q44.38 9.83 44.36 9.65L44.36 9.65L44.36 9.65Q44.34 9.48 44.34 9.35L44.34 9.35L44.34 9.35Q44.28 9.09 44.23 8.88L44.23 8.88L44.23 8.88Q44.18 8.67 44.07 8.49L44.07 8.49L44.07 8.49Q43.96 8.32 43.76 8.17L43.76 8.17L43.76 8.17Q43.57 8.02 43.23 7.90L43.23 7.90L43.23 7.90Q42.70 7.70 42.18 7.56L42.18 7.56L42.18 7.56Q41.65 7.42 40.89 7.31L40.89 7.31L40.89 7.31Q40.40 7.24 40.17 7.36L40.17 7.36L40.17 7.36Q39.94 7.48 39.82 7.95L39.82 7.95L39.82 7.95Q39.69 8.61 39.56 9.47L39.56 9.47L39.56 9.47Q39.42 10.33 39.29 11.30L39.29 11.30L39.29 11.30Q39.16 12.26 39.05 13.26L39.05 13.26L39.05 13.26Q38.93 14.25 38.84 15.18L38.84 15.18L38.84 15.18Q38.75 16.10 38.70 16.89L38.70 16.89L38.70 16.89Q38.65 17.68 38.65 18.23L38.65 18.23L38.65 18.23Q38.63 18.59 38.75 18.79L38.75 18.79L38.75 18.79Q38.88 18.98 39.23 19.15L39.23 19.15L39.23 19.15Q39.51 19.29 39.84 19.40L39.84 19.40L39.84 19.40Q40.17 19.50 40.49 19.57L40.49 19.57L40.49 19.57Q40.82 19.64 40.95 19.57L40.95 19.57L40.95 19.57Q41.08 19.49 41.13 19.24L41.13 19.24L41.13 19.24Q41.19 18.63 41.29 17.86L41.29 17.86L41.29 17.86Q41.40 17.09 41.54 16.21L41.54 16.21L41.54 16.21Q41.68 15.33 41.85 14.38L41.85 14.38L41.85 14.38Q42.01 13.43 42.20 12.47ZM56.41 16.53L56.41 16.53L56.41 16.53Q56.14 16.69 56.14 16.95L56.14 16.95L56.14 16.95Q56.17 17.21 56.77 17.72L56.77 17.72L56.77 17.72Q57.90 18.77 58.97 19.20L58.97 19.20L58.97 19.20Q60.03 19.63 61.15 19.60L61.15 19.60L61.15 19.60Q61.99 19.59 62.59 19.39L62.59 19.39L62.59 19.39Q63.20 19.19 63.62 18.91L63.62 18.91L63.62 18.91Q64.04 18.62 64.29 18.28L64.29 18.28L64.29 18.28Q64.54 17.95 64.68 17.65L64.68 17.65L64.68 17.65Q64.90 17.25 64.83 16.89L64.83 16.89L64.83 16.89Q64.75 16.53 64.46 16.20L64.46 16.20L64.46 16.20Q64.18 15.88 63.74 15.57L63.74 15.57L63.74 15.57Q63.29 15.26 62.80 14.95L62.80 14.95L62.80 14.95Q62.30 14.63 61.80 14.29L61.80 14.29L61.80 14.29Q61.31 13.96 60.90 13.58L60.90 13.58L60.90 13.58Q60.58 13.30 60.49 12.94L60.49 12.94L60.49 12.94Q60.41 12.57 60.48 12.19L60.48 12.19L60.48 12.19Q60.55 11.82 60.75 11.44L60.75 11.44L60.75 11.44Q60.96 11.06 61.22 10.74L61.22 10.74L61.22 10.74Q61.47 10.42 61.75 10.16L61.75 10.16L61.75 10.16Q62.03 9.91 62.26 9.79L62.26 9.79L62.26 9.79Q62.52 9.60 62.64 9.63L62.64 9.63L62.64 9.63Q62.75 9.66 62.77 9.84L62.77 9.84L62.77 9.84Q62.79 10.02 62.73 10.31L62.73 10.31L62.73 10.31Q62.68 10.60 62.60 10.91L62.60 10.91L62.60 10.91Q62.52 11.23 62.45 11.54L62.45 11.54L62.45 11.54Q62.37 11.86 62.36 12.10L62.36 12.10L62.36 12.10Q62.22 13.26 64.12 13.93L64.12 13.93L64.12 13.93Q64.44 14.06 64.62 13.99L64.62 13.99L64.62 13.99Q64.81 13.92 64.96 13.64L64.96 13.64L64.96 13.64Q65.11 13.33 65.27 12.91L65.27 12.91L65.27 12.91Q65.42 12.49 65.55 12.03L65.55 12.03L65.55 12.03Q65.67 11.58 65.77 11.13L65.77 11.13L65.77 11.13Q65.87 10.68 65.91 10.30L65.91 10.30L65.91 10.30Q65.91 10.09 65.91 9.86L65.91 9.86L65.91 9.86Q65.90 9.63 65.84 9.38L65.84 9.38L65.84 9.38Q65.77 9.13 65.63 8.87L65.63 8.87L65.63 8.87Q65.48 8.61 65.20 8.36L65.20 8.36L65.20 8.36Q64.78 7.95 64.15 7.63L64.15 7.63L64.15 7.63Q63.52 7.31 62.89 7.08L62.89 7.08L62.89 7.08Q62.47 6.96 62.08 6.94L62.08 6.94L62.08 6.94Q61.70 6.92 61.37 6.97L61.37 6.97L61.37 6.97Q61.04 7.03 60.77 7.15L60.77 7.15L60.77 7.15Q60.51 7.27 60.33 7.39L60.33 7.39L60.33 7.39Q59.82 7.70 59.33 8.15L59.33 8.15L59.33 8.15Q58.84 8.60 58.44 9.11L58.44 9.11L58.44 9.11Q58.03 9.63 57.73 10.18L57.73 10.18L57.73 10.18Q57.43 10.72 57.30 11.20L57.30 11.20L57.30 11.20Q57.12 11.76 57.13 12.28L57.13 12.28L57.13 12.28Q57.15 12.80 57.32 13.25L57.32 13.25L57.32 13.25Q57.48 13.71 57.79 14.09L57.79 14.09L57.79 14.09Q58.09 14.48 58.46 14.78L58.46 14.78L58.46 14.78Q58.81 15.08 59.24 15.36L59.24 15.36L59.24 15.36Q59.67 15.64 60.10 15.90L60.10 15.90L60.10 15.90Q60.52 16.17 60.91 16.41L60.91 16.41L60.91 16.41Q61.29 16.66 61.55 16.86L61.55 16.86L61.55 16.86Q61.81 17.07 61.90 17.23L61.90 17.23L61.90 17.23Q61.99 17.40 61.84 17.50L61.84 17.50L61.84 17.50Q61.45 17.81 60.57 17.60L60.57 17.60L60.57 17.60Q59.70 17.39 58.52 16.67L58.52 16.67L58.52 16.67Q58.31 16.53 58.05 16.46L58.05 16.46L58.05 16.46Q57.79 16.38 57.51 16.36L57.51 16.36L57.51 16.36Q57.22 16.34 56.94 16.39L56.94 16.39L56.94 16.39Q56.66 16.44 56.41 16.53ZM71.82 16.67L71.82 16.67L71.82 16.67Q71.86 17.25 71.90 17.73L71.90 17.73L71.90 17.73Q71.95 18.21 72.00 18.62L72.00 18.62L72.00 18.62Q72.06 19.01 72.19 19.17L72.19 19.17L72.19 19.17Q72.32 19.32 72.66 19.42L72.66 19.42L72.66 19.42Q72.98 19.53 73.29 19.55L73.29 19.55L73.29 19.55Q73.60 19.57 73.96 19.57L73.96 19.57L73.96 19.57Q74.33 19.57 74.43 19.47L74.43 19.47L74.43 19.47Q74.54 19.38 74.54 19.12L74.54 19.12L74.54 19.12Q74.52 17.92 74.53 16.51L74.53 16.51L74.53 16.51Q74.54 15.11 74.56 13.71L74.56 13.71L74.56 13.71Q74.59 12.31 74.65 11.02L74.65 11.02L74.65 11.02Q74.70 9.73 74.79 8.74L74.79 8.74L74.79 8.74Q74.83 8.33 74.71 8.08L74.71 8.08L74.71 8.08Q74.59 7.83 74.16 7.67L74.16 7.67L74.16 7.67Q73.84 7.59 73.52 7.49L73.52 7.49L73.52 7.49Q73.21 7.39 72.83 7.31L72.83 7.31L72.83 7.31Q72.46 7.22 72.02 7.16L72.02 7.16L72.02 7.16Q71.57 7.10 70.99 7.07L70.99 7.07L70.99 7.07Q70.34 7.01 70 7.25L70 7.25L70 7.25Q69.66 7.49 69.45 7.87L69.45 7.87L69.45 7.87Q68.87 8.92 68.22 10.27L68.22 10.27L68.22 10.27Q67.56 11.62 66.94 13.01L66.94 13.01L66.94 13.01Q66.32 14.39 65.78 15.69L65.78 15.69L65.78 15.69Q65.24 17.00 64.90 17.96L64.90 17.96L64.90 17.96Q64.82 18.26 64.83 18.43L64.83 18.43L64.83 18.43Q64.83 18.61 64.90 18.72L64.90 18.72L64.90 18.72Q64.97 18.83 65.10 18.91L65.10 18.91L65.10 18.91Q65.23 18.98 65.39 19.10L65.39 19.10L65.39 19.10Q65.62 19.21 65.83 19.30L65.83 19.30L65.83 19.30Q66.05 19.39 66.23 19.46L66.23 19.46L66.23 19.46Q66.56 19.57 66.72 19.53L66.72 19.53L66.72 19.53Q66.88 19.49 66.99 19.25L66.99 19.25L66.99 19.25Q67.19 18.80 67.40 18.33L67.40 18.33L67.40 18.33Q67.61 17.86 67.89 17.32L67.89 17.32L67.89 17.32Q68.68 17.11 69.73 16.96L69.73 16.96L69.73 16.96Q70.77 16.81 71.82 16.67ZM69.15 14.71L69.15 14.71L69.15 14.71Q69.80 13.38 70.45 12.14L70.45 12.14L70.45 12.14Q71.11 10.91 71.67 9.88L71.67 9.88L71.67 9.88Q71.64 11.00 71.65 12.14L71.65 12.14L71.65 12.14Q71.67 13.29 71.69 14.43L71.69 14.43L71.69 14.43Q71.05 14.48 70.41 14.55L70.41 14.55L70.41 14.55Q69.78 14.62 69.15 14.71ZM80.68 15.08L80.68 15.08L80.68 15.08Q81.30 14.49 81.98 13.82L81.98 13.82L81.98 13.82Q82.67 13.15 83.31 12.47L83.31 12.47L83.31 12.47Q83.94 11.79 84.48 11.14L84.48 11.14L84.48 11.14Q85.02 10.49 85.34 9.95L85.34 9.95L85.34 9.95Q85.61 9.52 85.64 9.23L85.64 9.23L85.64 9.23Q85.68 8.93 85.57 8.62L85.57 8.62L85.57 8.62Q85.39 8.25 85.18 7.92L85.18 7.92L85.18 7.92Q84.98 7.60 84.67 7.34L84.67 7.34L84.67 7.34Q84.38 7.08 84.14 7.08L84.14 7.08L84.14 7.08Q83.93 7.08 83.69 7.39L83.69 7.39L83.69 7.39Q83.33 7.84 82.76 8.48L82.76 8.48L82.76 8.48Q82.19 9.13 81.54 9.84L81.54 9.84L81.54 9.84Q80.89 10.56 80.21 11.29L80.21 11.29L80.21 11.29Q79.52 12.03 78.93 12.67L78.93 12.67L78.93 12.67Q79.17 11.58 79.38 10.66L79.38 10.66L79.38 10.66Q79.59 9.74 79.80 9.03L79.80 9.03L79.80 9.03Q79.86 8.85 79.87 8.71L79.87 8.71L79.87 8.71Q79.88 8.58 79.83 8.47L79.83 8.47L79.83 8.47Q79.77 8.36 79.65 8.25L79.65 8.25L79.65 8.25Q79.52 8.15 79.31 8.01L79.31 8.01L79.31 8.01Q78.93 7.76 78.42 7.53L78.42 7.53L78.42 7.53Q77.91 7.31 77.46 7.20L77.46 7.20L77.46 7.20Q77.06 7.07 76.83 7.16L76.83 7.16L76.83 7.16Q76.61 7.25 76.50 7.64L76.50 7.64L76.50 7.64Q76.36 8.30 76.20 9.20L76.20 9.20L76.20 9.20Q76.05 10.09 75.89 11.10L75.89 11.10L75.89 11.10Q75.74 12.10 75.60 13.14L75.60 13.14L75.60 13.14Q75.46 14.18 75.35 15.13L75.35 15.13L75.35 15.13Q75.24 16.09 75.17 16.88L75.17 16.88L75.17 16.88Q75.10 17.67 75.08 18.16L75.08 18.16L75.08 18.16Q75.05 18.68 75.33 18.93L75.33 18.93L75.33 18.93Q75.61 19.18 76.24 19.35L76.24 19.35L76.24 19.35Q76.55 19.43 76.81 19.51L76.81 19.51L76.81 19.51Q77.07 19.59 77.25 19.59L77.25 19.59L77.25 19.59Q77.43 19.60 77.53 19.52L77.53 19.52L77.53 19.52Q77.63 19.45 77.63 19.24L77.63 19.24L77.63 19.24Q77.74 18.61 77.88 17.84L77.88 17.84L77.88 17.84Q78.02 17.07 78.20 16.14L78.20 16.14L78.20 16.14Q78.50 16.56 78.84 16.99L78.84 16.99L78.84 16.99Q79.18 17.42 79.50 17.79L79.50 17.79L79.50 17.79Q79.81 18.17 80.08 18.47L80.08 18.47L80.08 18.47Q80.35 18.76 80.50 18.93L80.50 18.93L80.50 18.93Q80.88 19.33 81.26 19.39L81.26 19.39L81.26 19.39Q81.63 19.45 82.00 19.35L82.00 19.35L82.00 19.35Q82.24 19.32 82.48 19.25L82.48 19.25L82.48 19.25Q82.73 19.18 82.91 19.08L82.91 19.08L82.91 19.08Q83.22 18.94 83.26 18.80L83.26 18.80L83.26 18.80Q83.31 18.65 83.08 18.41L83.08 18.41L83.08 18.41Q82.85 18.16 82.56 17.78L82.56 17.78L82.56 17.78Q82.26 17.40 81.94 16.95L81.94 16.95L81.94 16.95Q81.62 16.51 81.29 16.02L81.29 16.02L81.29 16.02Q80.96 15.54 80.68 15.08ZM88.96 8.20L88.96 8.20L88.96 8.20Q88.58 7.95 88.07 7.73L88.07 7.73L88.07 7.73Q87.57 7.50 87.14 7.39L87.14 7.39L87.14 7.39Q86.70 7.27 86.48 7.36L86.48 7.36L86.48 7.36Q86.27 7.45 86.14 7.85L86.14 7.85L86.14 7.85Q85.99 8.51 85.81 9.39L85.81 9.39L85.81 9.39Q85.62 10.26 85.45 11.24L85.45 11.24L85.45 11.24Q85.27 12.22 85.11 13.24L85.11 13.24L85.11 13.24Q84.94 14.27 84.80 15.19L84.80 15.19L84.80 15.19Q84.67 16.11 84.58 16.89L84.58 16.89L84.58 16.89Q84.49 17.67 84.46 18.16L84.46 18.16L84.46 18.16Q84.42 18.52 84.52 18.73L84.52 18.73L84.52 18.73Q84.63 18.93 84.95 19.08L84.95 19.08L84.95 19.08Q85.25 19.24 85.57 19.33L85.57 19.33L85.57 19.33Q85.90 19.43 86.27 19.53L86.27 19.53L86.27 19.53Q86.63 19.61 86.75 19.54L86.75 19.54L86.75 19.54Q86.87 19.47 86.94 19.24L86.94 19.24L86.94 19.24Q87.07 18.61 87.24 17.80L87.24 17.80L87.24 17.80Q87.42 17.00 87.63 16.09L87.63 16.09L87.63 16.09Q87.84 15.19 88.06 14.25L88.06 14.25L88.06 14.25Q88.28 13.30 88.51 12.40L88.51 12.40L88.51 12.40Q88.75 11.49 88.98 10.68L88.98 10.68L88.98 10.68Q89.21 9.87 89.40 9.24L89.40 9.24L89.40 9.24Q89.50 8.86 89.42 8.67L89.42 8.67L89.42 8.67Q89.35 8.47 88.96 8.20ZM96.42 13.96L96.42 13.96L96.42 13.96Q96.89 13.72 97.24 13.46L97.24 13.46L97.24 13.46Q97.59 13.20 97.93 12.95L97.93 12.95L97.93 12.95Q98.24 12.68 98.50 12.38L98.50 12.38L98.50 12.38Q98.77 12.08 98.95 11.73L98.95 11.73L98.95 11.73Q99.13 11.38 99.21 11.00L99.21 11.00L99.21 11.00Q99.29 10.63 99.22 10.22L99.22 10.22L99.22 10.22Q99.06 9.48 98.73 8.92L98.73 8.92L98.73 8.92Q98.41 8.36 97.92 7.87L97.92 7.87L97.92 7.87Q97.54 7.50 96.95 7.31L96.95 7.31L96.95 7.31Q96.36 7.13 95.65 7.08L95.65 7.08L95.65 7.08Q94.95 7.04 94.16 7.13L94.16 7.13L94.16 7.13Q93.38 7.21 92.62 7.39L92.62 7.39L92.62 7.39Q91.85 7.57 91.15 7.83L91.15 7.83L91.15 7.83Q90.45 8.08 89.92 8.37L89.92 8.37L89.92 8.37Q89.89 9.45 89.79 10.65L89.79 10.65L89.79 10.65Q89.68 11.84 89.55 13.03L89.55 13.03L89.55 13.03Q89.42 14.21 89.31 15.31L89.31 15.31L89.31 15.31Q89.19 16.41 89.15 17.28L89.15 17.28L89.15 17.28Q89.12 17.54 89.15 17.71L89.15 17.71L89.15 17.71Q89.18 17.88 89.25 18.01L89.25 18.01L89.25 18.01Q89.32 18.14 89.44 18.26L89.44 18.26L89.44 18.26Q89.56 18.38 89.71 18.55L89.71 18.55L89.71 18.55Q90.13 18.87 90.45 19.07L90.45 19.07L90.45 19.07Q90.76 19.28 91.18 19.46L91.18 19.46L91.18 19.46Q91.41 19.59 91.57 19.64L91.57 19.64L91.57 19.64Q91.74 19.70 91.92 19.71L91.92 19.71L91.92 19.71Q92.09 19.73 92.28 19.70L92.28 19.70L92.28 19.70Q92.47 19.67 92.74 19.60L92.74 19.60L92.74 19.60Q93.24 19.47 93.80 19.29L93.80 19.29L93.80 19.29Q94.36 19.10 94.91 18.86L94.91 18.86L94.91 18.86Q95.47 18.62 95.96 18.33L95.96 18.33L95.96 18.33Q96.46 18.03 96.82 17.71L96.82 17.71L96.82 17.71Q97.36 17.29 97.59 16.85L97.59 16.85L97.59 16.85Q97.83 16.41 97.76 15.78L97.76 15.78L97.76 15.78Q97.65 15.25 97.31 14.74L97.31 14.74L97.31 14.74Q96.96 14.24 96.42 13.96ZM92.72 12.96L92.72 12.96L92.72 12.96Q92.92 12.22 93.06 11.56L93.06 11.56L93.06 11.56Q93.20 10.91 93.39 10.30L93.39 10.30L93.39 10.30Q94.00 10.02 94.51 9.88L94.51 9.88L94.51 9.88Q95.03 9.74 95.43 9.72L95.43 9.72L95.43 9.72Q95.83 9.70 96.08 9.79L96.08 9.79L96.08 9.79Q96.33 9.88 96.39 10.07L96.39 10.07L96.39 10.07Q96.45 10.29 96.22 10.66L96.22 10.66L96.22 10.66Q96.00 11.03 95.51 11.45L95.51 11.45L95.51 11.45Q95.03 11.86 94.32 12.26L94.32 12.26L94.32 12.26Q93.62 12.67 92.72 12.96ZM92.19 15.29L92.19 15.29L92.19 15.29Q92.75 15.11 93.21 15.04L93.21 15.04L93.21 15.04Q93.67 14.98 94.02 15.02L94.02 15.02L94.02 15.02Q94.37 15.06 94.58 15.18L94.58 15.18L94.58 15.18Q94.79 15.29 94.86 15.43L94.86 15.43L94.86 15.43Q94.92 15.67 94.72 15.95L94.72 15.95L94.72 15.95Q94.51 16.24 94.09 16.53L94.09 16.53L94.09 16.53Q93.67 16.81 93.07 17.07L93.07 17.07L93.07 17.07Q92.47 17.33 91.74 17.51L91.74 17.51L91.74 17.51Q91.84 16.95 91.96 16.41L91.96 16.41L91.96 16.41Q92.08 15.88 92.19 15.29Z"></path></g><!----><!----></svg>