<svg width="529.201" height="77.8" viewBox="0 0 529.201 77.8" xmlns="http://www.w3.org/2000/svg"><g id="svgGroup" stroke-linecap="round" fill-rule="evenodd" font-size="9pt" stroke="#5046e5" stroke-width="0.25mm" fill="#5046e5" style="stroke:#5046e5;stroke-width:0.25mm;fill:#5046e5"><path d="M 26.301 39 L 25.001 41.5 C 26.101 41.3 27.201 41.3 28.201 41.3 C 34.201 41.3 37.301 44.2 37.301 51 A 29.479 29.479 0 0 1 37.255 52.638 C 36.638 63.728 29.717 74.818 14.884 75.378 A 31.388 31.388 0 0 1 13.701 75.4 A 29.24 29.24 0 0 1 11.838 75.338 C 11.398 75.309 10.978 75.274 10.585 75.237 A 63.705 63.705 0 0 1 10.201 75.2 A 28.556 28.556 0 0 1 11.024 71.033 C 14.779 56.693 29.199 27.16 29.3 20.272 A 4.901 4.901 0 0 0 29.301 20.2 C 29.301 17.001 27.003 15.002 22.006 15 A 12.962 12.962 0 0 0 22.001 15 A 20.887 20.887 0 0 0 20.021 15.103 C 17.602 15.336 15.063 15.909 13.501 16.3 A 2.106 2.106 0 0 1 13.84 16.891 C 14.042 17.417 14.178 18.287 14.198 20.036 A 40.456 40.456 0 0 1 14.201 20.5 C 14.201 31.5 0.001 56.5 0.001 70.2 A 5.95 5.95 0 0 0 4.195 75.983 C 7.349 77.301 12.005 77.6 17.201 77.6 A 41.972 41.972 0 0 0 37.615 72.348 C 42.116 69.799 45.766 66.464 48.018 62.659 A 16.921 16.921 0 0 0 50.501 54 A 14.291 14.291 0 0 0 49.385 48.246 C 47.53 43.975 43.561 41.47 39.012 40.123 A 30.24 30.24 0 0 0 35.401 39.3 A 84.281 84.281 0 0 0 38.945 38.353 C 48.432 35.583 57.92 30.692 58.098 20.397 A 17.087 17.087 0 0 0 58.101 20.1 C 58.101 7.6 42.801 5.1 31.601 5.1 A 55.925 55.925 0 0 0 28.072 5.219 C 23.714 5.497 18.963 6.238 15.623 7.213 A 25.596 25.596 0 0 0 14.701 7.5 C 13.401 8 12.601 9 12.601 10.2 C 12.601 10.951 13.019 11.911 13.912 12.964 A 10.657 10.657 0 0 0 14.501 13.6 A 23.14 23.14 0 0 1 20.094 10.362 C 24.042 8.74 28.116 8.2 31.201 8.2 C 40.401 8.2 45.501 11.3 45.501 18.7 A 20.815 20.815 0 0 1 40.201 32.696 A 18.71 18.71 0 0 1 26.301 39 Z M 181.301 27.2 L 181.301 28.2 A 2.394 2.394 0 0 1 182.379 28.439 C 183.133 28.814 183.564 29.588 183.673 30.454 A 3.574 3.574 0 0 1 183.701 30.9 A 21.197 21.197 0 0 1 183.222 34.99 C 181.486 43.618 175.58 56.384 174.871 65.237 A 20.851 20.851 0 0 0 174.801 66.9 A 13.215 13.215 0 0 0 176.165 73.18 C 177.558 75.755 180.136 77.52 184.424 77.687 A 17.406 17.406 0 0 0 185.101 77.7 A 14.768 14.768 0 0 0 190.957 76.56 C 196.523 74.192 199.596 68.532 202.201 63.4 A 22.117 22.117 0 0 0 201.915 66.165 A 19.17 19.17 0 0 0 201.901 66.9 A 16.731 16.731 0 0 0 202.462 71.495 C 203.559 75.312 206.375 77.61 211.874 77.697 A 20.647 20.647 0 0 0 212.201 77.7 A 21.153 21.153 0 0 0 226.977 71.422 A 35.728 35.728 0 0 0 230.001 68.2 C 237.001 59.7 244.001 48.6 244.001 36.4 C 244.001 29.247 242.693 25.552 238.452 25.312 A 8.008 8.008 0 0 0 238.001 25.3 A 18.155 18.155 0 0 0 236.148 25.397 C 234.111 25.607 232.039 26.164 230.722 27.11 A 5.047 5.047 0 0 0 230.601 27.2 A 39.344 39.344 0 0 1 232.938 34.507 A 50.458 50.458 0 0 1 234.101 45.3 A 41.177 41.177 0 0 1 231.65 59.978 A 24.01 24.01 0 0 1 228.101 66.3 A 47.082 47.082 0 0 1 227.04 67.617 C 224.932 70.135 222.172 72.836 219.084 74.005 A 8.685 8.685 0 0 1 216.001 74.6 A 2.072 2.072 0 0 1 214.382 73.74 C 214.107 73.395 213.884 72.957 213.731 72.45 A 5.732 5.732 0 0 1 213.501 70.8 A 23.473 23.473 0 0 1 213.861 67.055 C 215.716 55.851 224.118 36.237 224.394 30.763 A 5.229 5.229 0 0 0 224.401 30.5 A 4.77 4.77 0 0 0 221.844 26.269 C 221.145 25.869 220.311 25.567 219.35 25.388 A 11.742 11.742 0 0 0 217.201 25.2 A 8.063 8.063 0 0 0 216.217 25.266 C 214.433 25.488 212.226 26.231 210.9 27.013 A 6.405 6.405 0 0 0 210.601 27.2 C 210.901 28.2 211.001 29.5 211.001 30.9 A 19.301 19.301 0 0 1 210.68 34.09 C 209.204 42.662 202.972 57.611 199.201 64.1 A 56.485 56.485 0 0 1 197.165 67.459 C 193.636 72.82 190.841 74.6 188.901 74.6 A 2.061 2.061 0 0 1 187.776 74.29 C 186.754 73.643 186.401 72.104 186.401 70.8 A 23.699 23.699 0 0 1 186.763 67.018 C 188.475 56.674 195.713 39.368 196.928 32.213 A 10.563 10.563 0 0 0 197.101 30.5 A 4.77 4.77 0 0 0 194.544 26.269 C 193.845 25.869 193.011 25.567 192.05 25.388 A 11.742 11.742 0 0 0 189.901 25.2 A 12.403 12.403 0 0 0 188.689 25.266 C 186.053 25.527 182.678 26.512 181.301 27.2 Z M 390.127 40.644 A 23.205 23.205 0 0 0 399.301 23.1 A 16.901 16.901 0 0 0 397.872 15.998 C 394.603 8.84 386.215 6.089 377.826 5.334 A 60.751 60.751 0 0 0 372.401 5.1 C 367.072 5.1 360.274 5.916 355.913 7.179 A 22.694 22.694 0 0 0 354.601 7.6 C 353.301 8.1 352.501 9.1 352.501 10.3 C 352.501 11.19 352.976 12.16 353.998 13.279 A 12.786 12.786 0 0 0 354.401 13.7 C 359.97 9.187 366.921 8.086 371.981 8.005 A 38.903 38.903 0 0 1 372.601 8 C 379.916 8 385.614 11.425 385.89 20.408 A 22.491 22.491 0 0 1 385.901 21.1 A 34.333 34.333 0 0 1 385.68 24.989 C 384.316 36.944 376.516 48.9 359.201 48.9 A 514.518 514.518 0 0 1 360.837 44.712 C 365.069 34.008 369.301 24.041 369.301 20.5 C 369.301 17.3 366.901 15 361.601 15 C 359.045 15 355.62 15.773 353.604 16.274 A 85.888 85.888 0 0 0 353.501 16.3 A 2.404 2.404 0 0 1 353.804 16.945 C 354.084 17.802 354.201 19.122 354.201 20.5 A 20.865 20.865 0 0 1 353.688 24.598 C 351.157 36.763 340.057 60.404 338.899 70.883 A 14.821 14.821 0 0 0 338.801 72.5 C 338.801 74.937 340.321 77.469 344.566 77.595 A 11.275 11.275 0 0 0 344.901 77.6 C 346.901 77.6 350.101 77.2 351.701 76.2 A 12.782 12.782 0 0 1 351.43 74.376 A 10.645 10.645 0 0 1 351.401 73.6 A 18.798 18.798 0 0 1 351.784 70.203 C 352.368 67.132 353.584 63.161 355.191 58.828 A 157.187 157.187 0 0 1 358.001 51.8 C 369.444 51.8 381.917 47.609 390.127 40.644 Z M 99.401 75.1 L 98.201 74.8 A 61.759 61.759 0 0 1 99.503 69.393 C 104.667 51.065 119.991 16.838 121.738 7.268 A 8.505 8.505 0 0 0 121.901 5.8 C 121.901 2.953 120.08 0.581 116.297 0.092 A 11.691 11.691 0 0 0 114.801 0 C 112.001 0 106.901 1.2 105.101 2 L 105.101 3 C 106.601 3 107.501 4.2 107.501 5.7 A 30.118 30.118 0 0 1 106.823 11.432 C 103.633 27.385 90.238 55.849 89.53 68.594 A 18.157 18.157 0 0 0 89.501 69.6 A 6.547 6.547 0 0 0 93.751 75.912 C 96.473 77.169 100.315 77.636 104.722 77.694 A 74.532 74.532 0 0 0 105.701 77.7 C 124.201 77.7 140.101 54.9 140.101 37.4 A 18.603 18.603 0 0 0 139.612 32.988 C 138.242 27.377 134.17 25 129.701 25 A 11.123 11.123 0 0 0 123.989 26.706 A 11.843 11.843 0 0 0 122.601 27.7 A 24.517 24.517 0 0 0 119.793 30.753 C 112.802 39.608 105.48 57.742 99.401 75.1 Z M 448.901 76.5 L 453.801 76.5 C 457.601 65.8 462.201 55.2 467.001 44.8 A 170.778 170.778 0 0 1 467.135 44.509 C 469.575 39.234 472.351 33.959 474.641 32.497 A 2.189 2.189 0 0 1 475.801 32.1 A 2.024 2.024 0 0 1 477.681 33.457 A 3.023 3.023 0 0 1 477.901 34.6 C 477.901 36.66 477.259 38.962 475.4 40.209 A 4.959 4.959 0 0 1 474.701 40.6 C 474.701 41.7 477.801 43.1 479.701 43.1 A 9.536 9.536 0 0 0 487.14 39.606 A 9.607 9.607 0 0 0 489.301 33.5 A 8.142 8.142 0 0 0 482.967 25.566 A 9.56 9.56 0 0 0 480.701 25.3 C 476.37 25.3 473.602 28.112 471.222 31.595 A 49.271 49.271 0 0 0 470.301 33 C 464.794 41.83 459.017 55.708 452.626 71.896 A 1912.752 1912.752 0 0 0 451.601 74.5 A 3.81 3.81 0 0 1 451.102 74.385 C 450.715 74.265 450.466 74.099 450.314 73.901 A 1.108 1.108 0 0 1 450.101 73.2 A 3.369 3.369 0 0 1 450.267 72.539 C 451.893 67.329 464.901 34.756 464.901 31.1 C 464.901 27.9 462.301 25.3 457.201 25.3 C 454.301 25.3 451.401 26.1 449.101 27.3 L 449.101 28.3 A 2.358 2.358 0 0 1 450.321 28.621 C 450.975 29.009 451.382 29.714 451.479 30.522 A 3.186 3.186 0 0 1 451.501 30.9 A 18.14 18.14 0 0 1 451.066 34.457 C 449.023 44.354 440.452 62.057 439.926 69.976 A 10.955 10.955 0 0 0 439.901 70.7 A 4.799 4.799 0 0 0 442.382 75.262 C 443.543 75.916 445.161 76.327 447.337 76.456 A 26.385 26.385 0 0 0 448.901 76.5 Z M 261.201 55.9 A 38.033 38.033 0 0 0 264.674 56.181 A 33.93 33.93 0 0 0 265.801 56.2 A 31.499 31.499 0 0 0 281.333 52.262 A 20.281 20.281 0 0 0 292.401 34.7 A 9.121 9.121 0 0 0 291.813 31.402 C 290.443 27.841 286.941 25.979 284.079 25.516 A 8.684 8.684 0 0 0 282.701 25.4 A 37.189 37.189 0 0 0 250.552 48.702 C 248.405 53.462 247.183 58.467 247.105 63.213 A 29.422 29.422 0 0 0 247.101 63.7 A 16.414 16.414 0 0 0 248.668 71.078 C 250.683 75.098 254.69 77.688 260.988 77.797 A 24.048 24.048 0 0 0 261.401 77.8 C 272.99 77.8 282.087 68.516 283.351 64.932 A 2.274 2.274 0 0 0 283.501 64.2 A 1.229 1.229 0 0 0 283.419 63.773 C 283.115 62.957 281.959 62.021 279.781 61.815 A 8.912 8.912 0 0 0 279.601 61.8 C 279.601 67.393 273.04 73.616 267.501 74.248 A 7.949 7.949 0 0 1 266.601 74.3 A 5.294 5.294 0 0 1 264.124 73.73 C 260.757 71.983 260.154 66.633 260.104 63.459 A 29.284 29.284 0 0 1 260.101 63 A 20.982 20.982 0 0 1 260.322 60.08 C 260.473 59.009 260.699 57.884 260.989 56.716 A 43.61 43.61 0 0 1 261.201 55.9 Z M 406.801 55.9 A 38.033 38.033 0 0 0 410.274 56.181 A 33.93 33.93 0 0 0 411.401 56.2 A 31.499 31.499 0 0 0 426.933 52.262 A 20.281 20.281 0 0 0 438.001 34.7 A 9.121 9.121 0 0 0 437.413 31.402 C 436.043 27.841 432.541 25.979 429.679 25.516 A 8.684 8.684 0 0 0 428.301 25.4 A 37.189 37.189 0 0 0 396.152 48.702 C 394.005 53.462 392.783 58.467 392.705 63.213 A 29.422 29.422 0 0 0 392.701 63.7 A 16.414 16.414 0 0 0 394.268 71.078 C 396.283 75.098 400.29 77.688 406.588 77.797 A 24.048 24.048 0 0 0 407.001 77.8 C 418.59 77.8 427.687 68.516 428.951 64.932 A 2.274 2.274 0 0 0 429.101 64.2 A 1.229 1.229 0 0 0 429.019 63.773 C 428.715 62.957 427.559 62.021 425.381 61.815 A 8.912 8.912 0 0 0 425.201 61.8 C 425.201 67.393 418.64 73.616 413.101 74.248 A 7.949 7.949 0 0 1 412.201 74.3 A 5.294 5.294 0 0 1 409.724 73.73 C 406.357 71.983 405.754 66.633 405.704 63.459 A 29.284 29.284 0 0 1 405.701 63 A 20.982 20.982 0 0 1 405.922 60.08 C 406.073 59.009 406.299 57.884 406.589 56.716 A 43.61 43.61 0 0 1 406.801 55.9 Z M 498.001 55.9 A 38.033 38.033 0 0 0 501.474 56.181 A 33.93 33.93 0 0 0 502.601 56.2 A 31.499 31.499 0 0 0 518.133 52.262 A 20.281 20.281 0 0 0 529.201 34.7 A 9.121 9.121 0 0 0 528.613 31.402 C 527.243 27.841 523.741 25.979 520.879 25.516 A 8.684 8.684 0 0 0 519.501 25.4 A 37.189 37.189 0 0 0 487.352 48.702 C 485.205 53.462 483.983 58.467 483.905 63.213 A 29.422 29.422 0 0 0 483.901 63.7 A 16.414 16.414 0 0 0 485.468 71.078 C 487.483 75.098 491.49 77.688 497.788 77.797 A 24.048 24.048 0 0 0 498.201 77.8 C 509.79 77.8 518.887 68.516 520.151 64.932 A 2.274 2.274 0 0 0 520.301 64.2 A 1.229 1.229 0 0 0 520.219 63.773 C 519.915 62.957 518.759 62.021 516.581 61.815 A 8.912 8.912 0 0 0 516.401 61.8 C 516.401 67.393 509.84 73.616 504.301 74.248 A 7.949 7.949 0 0 1 503.401 74.3 A 5.294 5.294 0 0 1 500.924 73.73 C 497.557 71.983 496.954 66.633 496.904 63.459 A 29.284 29.284 0 0 1 496.901 63 A 20.982 20.982 0 0 1 497.122 60.08 C 497.273 59.009 497.499 57.884 497.789 56.716 A 43.61 43.61 0 0 1 498.001 55.9 Z M 81.901 64.4 L 79.901 63.5 A 62.534 62.534 0 0 1 78.347 66.034 C 76.028 69.605 74.342 71.194 73.165 71.53 A 1.689 1.689 0 0 1 72.701 71.6 A 1.067 1.067 0 0 1 72.267 71.518 C 71.875 71.345 71.701 70.909 71.701 70.3 C 71.701 64.941 84.503 36.637 84.699 31.123 A 3.48 3.48 0 0 0 84.701 31 C 84.701 28.182 82.84 25.83 79.119 25.308 A 11.652 11.652 0 0 0 77.501 25.2 A 14.5 14.5 0 0 0 75.915 25.296 C 73.659 25.546 71.075 26.255 69.341 27.001 A 12.728 12.728 0 0 0 68.901 27.2 L 68.901 28.2 A 2.554 2.554 0 0 1 69.937 28.403 C 70.725 28.75 71.172 29.504 71.277 30.387 A 3.51 3.51 0 0 1 71.301 30.8 C 71.301 39.036 60.245 60.444 59.719 69.571 A 11.498 11.498 0 0 0 59.701 70.1 A 10.983 10.983 0 0 0 59.745 71.088 C 60.008 73.995 61.496 76.901 65.434 77.561 A 10.686 10.686 0 0 0 67.201 77.7 A 12.054 12.054 0 0 0 71.082 77.14 C 74.326 76.052 76.871 73.226 80.264 67.346 A 115.335 115.335 0 0 0 81.901 64.4 Z M 166.301 64.4 L 164.301 63.5 A 62.534 62.534 0 0 1 162.747 66.034 C 160.428 69.605 158.742 71.194 157.565 71.53 A 1.689 1.689 0 0 1 157.101 71.6 A 1.067 1.067 0 0 1 156.667 71.518 C 156.275 71.345 156.101 70.909 156.101 70.3 C 156.101 64.941 168.903 36.637 169.099 31.123 A 3.48 3.48 0 0 0 169.101 31 C 169.101 28.182 167.24 25.83 163.519 25.308 A 11.652 11.652 0 0 0 161.901 25.2 A 14.5 14.5 0 0 0 160.315 25.296 C 158.059 25.546 155.475 26.255 153.741 27.001 A 12.728 12.728 0 0 0 153.301 27.2 L 153.301 28.2 A 2.554 2.554 0 0 1 154.337 28.403 C 155.125 28.75 155.572 29.504 155.677 30.387 A 3.51 3.51 0 0 1 155.701 30.8 C 155.701 39.036 144.645 60.444 144.119 69.571 A 11.498 11.498 0 0 0 144.101 70.1 A 10.983 10.983 0 0 0 144.145 71.088 C 144.408 73.995 145.896 76.901 149.834 77.561 A 10.686 10.686 0 0 0 151.601 77.7 A 12.054 12.054 0 0 0 155.482 77.14 C 158.726 76.052 161.271 73.226 164.664 67.346 A 115.335 115.335 0 0 0 166.301 64.4 Z M 316.701 64.4 L 314.701 63.5 A 62.534 62.534 0 0 1 313.147 66.034 C 310.828 69.605 309.142 71.194 307.965 71.53 A 1.689 1.689 0 0 1 307.501 71.6 A 1.067 1.067 0 0 1 307.067 71.518 C 306.675 71.345 306.501 70.909 306.501 70.3 C 306.501 64.941 319.303 36.637 319.499 31.123 A 3.48 3.48 0 0 0 319.501 31 C 319.501 28.182 317.64 25.83 313.919 25.308 A 11.652 11.652 0 0 0 312.301 25.2 A 14.5 14.5 0 0 0 310.715 25.296 C 308.459 25.546 305.875 26.255 304.141 27.001 A 12.728 12.728 0 0 0 303.701 27.2 L 303.701 28.2 A 2.554 2.554 0 0 1 304.737 28.403 C 305.525 28.75 305.972 29.504 306.077 30.387 A 3.51 3.51 0 0 1 306.101 30.8 C 306.101 39.036 295.045 60.444 294.519 69.571 A 11.498 11.498 0 0 0 294.501 70.1 A 10.983 10.983 0 0 0 294.545 71.088 C 294.808 73.995 296.296 76.901 300.234 77.561 A 10.686 10.686 0 0 0 302.001 77.7 A 12.054 12.054 0 0 0 305.882 77.14 C 309.126 76.052 311.671 73.226 315.064 67.346 A 115.335 115.335 0 0 0 316.701 64.4 Z M 128.051 38.104 A 30.273 30.273 0 0 0 128.401 33.8 C 128.401 31.2 127.424 30.102 126.448 29.856 A 1.826 1.826 0 0 0 126.001 29.8 A 1.726 1.726 0 0 0 125.568 29.861 C 123.907 30.295 120.95 33.017 118.164 37.69 A 40.494 40.494 0 0 0 117.201 39.4 C 112.701 47.7 107.101 60.8 102.201 75.4 A 13.067 13.067 0 0 0 106.836 74.358 C 118.103 69.644 126.297 50.119 128.051 38.104 Z M 263.087 49.867 A 60.298 60.298 0 0 0 261.701 54 A 10.143 10.143 0 0 0 262.801 54.09 A 27.18 27.18 0 0 0 263.701 54.1 A 12.005 12.005 0 0 0 269.573 52.526 C 277.038 48.389 281.401 37.184 281.401 32.1 A 12.049 12.049 0 0 0 281.352 30.981 C 281.267 30.071 281.07 29.333 280.762 28.832 A 1.342 1.342 0 0 0 279.601 28.1 A 4.955 4.955 0 0 0 277.476 28.643 C 272.594 30.981 266.597 40.502 263.087 49.867 Z M 408.687 49.867 A 60.298 60.298 0 0 0 407.301 54 A 10.143 10.143 0 0 0 408.401 54.09 A 27.18 27.18 0 0 0 409.301 54.1 A 12.005 12.005 0 0 0 415.173 52.526 C 422.638 48.389 427.001 37.184 427.001 32.1 A 12.049 12.049 0 0 0 426.952 30.981 C 426.867 30.071 426.67 29.333 426.362 28.832 A 1.342 1.342 0 0 0 425.201 28.1 A 4.955 4.955 0 0 0 423.076 28.643 C 418.194 30.981 412.197 40.502 408.687 49.867 Z M 499.887 49.867 A 60.298 60.298 0 0 0 498.501 54 A 10.143 10.143 0 0 0 499.601 54.09 A 27.18 27.18 0 0 0 500.501 54.1 A 12.005 12.005 0 0 0 506.373 52.526 C 513.838 48.389 518.201 37.184 518.201 32.1 A 12.049 12.049 0 0 0 518.152 30.981 C 518.067 30.071 517.87 29.333 517.562 28.832 A 1.342 1.342 0 0 0 516.401 28.1 A 4.955 4.955 0 0 0 514.276 28.643 C 509.394 30.981 503.397 40.502 499.887 49.867 Z M 79.466 5.358 A 21.464 21.464 0 0 0 79.601 3.6 C 84.448 3.6 87.414 4.025 89.1 4.891 A 3.122 3.122 0 0 1 91.001 7.9 C 91.001 11.2 85.801 18 81.601 18 C 80.745 18 79.454 18 78.474 17.514 A 2.329 2.329 0 0 1 77.301 16.3 A 7862.032 7862.032 0 0 0 77.398 15.886 C 78.077 12.999 79.096 8.623 79.466 5.358 Z M 163.866 5.358 A 21.464 21.464 0 0 0 164.001 3.6 C 168.848 3.6 171.814 4.025 173.5 4.891 A 3.122 3.122 0 0 1 175.401 7.9 C 175.401 11.2 170.201 18 166.001 18 C 165.145 18 163.854 18 162.874 17.514 A 2.329 2.329 0 0 1 161.701 16.3 A 7862.032 7862.032 0 0 0 161.798 15.886 C 162.477 12.999 163.496 8.623 163.866 5.358 Z M 314.266 5.358 A 21.464 21.464 0 0 0 314.401 3.6 C 319.248 3.6 322.214 4.025 323.9 4.891 A 3.122 3.122 0 0 1 325.801 7.9 C 325.801 11.2 320.601 18 316.401 18 C 315.545 18 314.254 18 313.274 17.514 A 2.329 2.329 0 0 1 312.101 16.3 A 7862.032 7862.032 0 0 0 312.198 15.886 C 312.877 12.999 313.896 8.623 314.266 5.358 Z" vector-effect="non-scaling-stroke"/></g></svg>
